<svg width="18" height="18" viewBox="0 0 18 18" fill="none" xmlns="http://www.w3.org/2000/svg">
<path d="M10.5527 3.11369C9.54023 2.53994 8.83992 2.43869 8.46581 2.81275C7.68112 3.59744 9.17175 5.90929 11.0504 7.78813C12.5776 9.31813 14.3916 10.5893 15.435 10.5893C15.6769 10.5893 15.8766 10.5218 16.0229 10.3755C16.3941 10.0015 16.2957 9.29835 15.7219 8.28592C15.2213 7.39998 14.4113 6.3763 13.4354 5.40034C12.4595 4.42438 11.4385 3.6144 10.5525 3.1138L10.5527 3.11369Z" fill="url(#paint0_linear_1383_5700)"/>
<path d="M7.47001 1.81969L5.87812 3.41157C5.31281 3.97688 5.31843 5.01188 5.895 6.32811C6.22969 7.09311 6.73311 7.90873 7.36594 8.71599C7.34906 8.71599 7.32938 8.71318 7.3125 8.71318C3.52692 8.71318 0.5625 9.95068 0.5625 11.5286V13.7786C0.5625 14.4761 1.13906 15.1061 2.10938 15.5926C2.12626 15.601 2.14313 15.6095 2.16001 15.6151C3.38907 16.217 5.22559 16.5939 7.31251 16.5939C9.39943 16.5939 11.236 16.217 12.465 15.6151C12.4819 15.6095 12.4988 15.601 12.5156 15.5926C13.4859 15.106 14.0625 14.476 14.0625 13.7786V13.3679C14.13 13.3736 14.1975 13.382 14.2622 13.382C14.7488 13.382 15.1453 13.2442 15.4238 12.963L17.0157 11.3711C18.1322 10.2545 16.9088 7.28165 14.2312 4.60415C11.5566 1.92665 8.58655 0.70315 7.47001 1.81969ZM7.31251 9.27565C7.48969 9.27565 7.66406 9.28128 7.83845 9.2869C8.01001 9.48378 8.1872 9.67784 8.37001 9.8719C8.02689 9.85221 7.67531 9.83815 7.31251 9.83815C4.65751 9.83815 1.96867 10.4203 1.96867 11.5285C1.96867 12.6366 4.65751 13.216 7.31251 13.216C9.11251 13.216 10.7325 12.9628 11.7 12.5353C11.8941 12.6478 12.0881 12.7463 12.2794 12.8391C11.1066 13.4269 9.26997 13.7785 7.31247 13.7785C3.66747 13.7785 1.12497 12.5916 1.12497 11.5285C1.12497 10.4654 3.66751 9.27565 7.31251 9.27565ZM13.5 13.7785C13.5 14.1441 13.1963 14.5238 12.6563 14.8641V14.341C12.6563 14.1863 12.5297 14.0598 12.375 14.0598C12.2203 14.0598 12.0938 14.1863 12.0938 14.341V15.1679C11.7675 15.317 11.3906 15.452 10.9688 15.5701V14.9064C10.9688 14.7489 10.8422 14.6251 10.6875 14.6251C10.5328 14.6251 10.4063 14.7489 10.4063 14.9064V15.7135C10.0547 15.7923 9.67781 15.857 9.28126 15.9076V15.1876C9.28126 15.0301 9.15469 14.9064 9.00001 14.9064C8.84532 14.9064 8.71876 15.0301 8.71876 15.1876V15.9695C8.35876 16.0004 7.98187 16.0173 7.59376 16.0257V15.1876C7.59376 15.0301 7.46719 14.9064 7.31251 14.9064C7.15782 14.9064 7.03126 15.0301 7.03126 15.1876V16.0257C6.64314 16.0173 6.26626 16.0004 5.90626 15.9695V15.1876C5.90626 15.0301 5.77969 14.9064 5.62501 14.9064C5.47032 14.9064 5.34376 15.0301 5.34376 15.1876V15.9076C4.9472 15.857 4.57031 15.7923 4.21876 15.7135V14.9064C4.21876 14.7489 4.09219 14.6251 3.93751 14.6251C3.78282 14.6251 3.65626 14.7489 3.65626 14.9064V15.5701C3.23437 15.452 2.85751 15.317 2.53126 15.1679V14.341C2.53126 14.1863 2.40469 14.0598 2.25001 14.0598C2.09532 14.0598 1.96876 14.1863 1.96876 14.341V14.8641C1.42876 14.5238 1.12501 14.1441 1.12501 13.7785V12.6704C2.1572 13.6632 4.50847 14.341 7.31251 14.341C9.61597 14.341 11.7 13.8854 12.9346 13.1148C13.1315 13.1851 13.3199 13.2413 13.4999 13.2835L13.5 13.7785ZM15.0272 12.5635C14.7684 12.8223 14.2875 12.8729 13.6659 12.7351L14.0344 12.3666C14.1441 12.2541 14.1441 12.077 14.0344 11.9673C13.9219 11.8576 13.7447 11.8576 13.635 11.9673L13.0528 12.5495C12.7181 12.4257 12.3525 12.2541 11.9728 12.0404L12.4425 11.5707C12.5522 11.4582 12.5522 11.281 12.4425 11.1713C12.3328 11.0616 12.1528 11.0616 12.0431 11.1713L11.475 11.7423C11.1713 11.5482 10.8563 11.3288 10.5413 11.0842L11.0503 10.5751C11.16 10.4654 11.16 10.2854 11.0503 10.1757C10.9406 10.066 10.7634 10.066 10.6509 10.1757L10.0997 10.7298C9.82406 10.4963 9.5428 10.2432 9.26437 9.97321L9.85781 9.37977C9.9675 9.27008 9.9675 9.09288 9.85781 8.98321C9.74813 8.87353 9.56812 8.87352 9.45843 8.98321L8.86499 9.57665C8.62311 9.32353 8.39249 9.07321 8.17874 8.8229C8.17874 8.82009 8.17593 8.81728 8.17311 8.81446C8.15061 8.78915 8.13374 8.76384 8.11124 8.73852L8.66249 8.18727C8.77218 8.07759 8.77218 7.89758 8.66249 7.78789C8.5528 7.6782 8.3756 7.6782 8.26593 7.78789L7.75687 8.29977C7.50937 7.98197 7.29281 7.66697 7.09876 7.36322L7.6697 6.79227C7.77939 6.68259 7.77939 6.50539 7.6697 6.39572C7.56001 6.28604 7.38001 6.28603 7.27031 6.39572L6.80062 6.86541C6.58687 6.48291 6.41531 6.1201 6.29156 5.78541L6.87376 5.20041C6.98344 5.09072 6.98344 4.91352 6.87376 4.80385C6.76407 4.69418 6.58687 4.69416 6.47437 4.80385L6.10593 5.17229C5.96812 4.55073 6.01874 4.06698 6.27749 3.80823L7.06218 3.02354C7.0875 4.4551 8.27157 6.60104 10.2543 8.58392C12.2372 10.5695 14.3803 11.7535 15.8118 11.7789L15.0272 12.5635ZM16.6191 10.9716C15.8653 11.7254 13.23 10.7663 10.651 8.18723C8.07484 5.60531 7.11562 2.97011 7.86658 2.21627C8.03533 2.05033 8.29408 1.96596 8.62314 1.96596C9.7847 1.96596 11.8266 2.99252 13.8347 5.00346C16.4137 7.5825 17.37 10.2207 16.6191 10.9716Z" fill="url(#paint1_linear_1383_5700)"/>
<path d="M0.84375 5.90027C1.46531 5.90027 1.96875 6.40371 1.96875 7.02527C1.96875 7.17996 2.09531 7.30652 2.25 7.30652C2.40469 7.30652 2.53125 7.17996 2.53125 7.02527C2.53125 6.40371 3.03469 5.90027 3.65625 5.90027C3.81094 5.90027 3.9375 5.77371 3.9375 5.61902C3.9375 5.46433 3.81094 5.33496 3.65625 5.33496C3.03469 5.33496 2.53125 4.83152 2.53125 4.20996C2.53125 4.05527 2.40469 3.92871 2.25 3.92871C2.09531 3.92871 1.96875 4.05527 1.96875 4.20996C1.96875 4.83152 1.46531 5.33496 0.84375 5.33496C0.689062 5.33496 0.5625 5.46152 0.5625 5.61902C0.5625 5.77652 0.689062 5.90027 0.84375 5.90027Z" fill="url(#paint2_linear_1383_5700)"/>
<path d="M14.9063 3.64746C15.3703 3.64746 15.75 4.02715 15.75 4.49121C15.75 4.64871 15.8766 4.77246 16.0313 4.77246C16.1859 4.77246 16.3125 4.64871 16.3125 4.49121C16.3125 4.02715 16.6922 3.64746 17.1563 3.64746C17.3109 3.64746 17.4375 3.5209 17.4375 3.36621C17.4375 3.21152 17.3109 3.08496 17.1563 3.08496C16.6922 3.08496 16.3125 2.70527 16.3125 2.24121C16.3125 2.08652 16.1859 1.95996 16.0313 1.95996C15.8766 1.95996 15.75 2.08652 15.75 2.24121C15.75 2.70527 15.3703 3.08496 14.9063 3.08496C14.7516 3.08496 14.625 3.21152 14.625 3.36621C14.625 3.5209 14.7516 3.64746 14.9063 3.64746Z" fill="url(#paint3_linear_1383_5700)"/>
<defs>
<linearGradient id="paint0_linear_1383_5700" x1="10.5775" y1="3.19911" x2="15.9276" y2="4.89136" gradientUnits="userSpaceOnUse">
<stop stop-color="#006FB9"/>
<stop offset="0.417213" stop-color="#6DAEDA"/>
<stop offset="1" stop-color="#053351"/>
</linearGradient>
<linearGradient id="paint1_linear_1383_5700" x1="5.47099" y1="2.56047" x2="16.5265" y2="6.44733" gradientUnits="userSpaceOnUse">
<stop stop-color="#006FB9"/>
<stop offset="0.417213" stop-color="#6DAEDA"/>
<stop offset="1" stop-color="#053351"/>
</linearGradient>
<linearGradient id="paint2_linear_1383_5700" x1="1.54474" y1="4.18522" x2="3.80444" y2="4.89998" gradientUnits="userSpaceOnUse">
<stop stop-color="#006FB9"/>
<stop offset="0.417213" stop-color="#6DAEDA"/>
<stop offset="1" stop-color="#053351"/>
</linearGradient>
<linearGradient id="paint3_linear_1383_5700" x1="15.4435" y1="2.17354" x2="17.3263" y2="2.76958" gradientUnits="userSpaceOnUse">
<stop stop-color="#006FB9"/>
<stop offset="0.417213" stop-color="#6DAEDA"/>
<stop offset="1" stop-color="#053351"/>
</linearGradient>
</defs>
</svg>
