<svg width="298" height="288" viewBox="0 0 298 288" fill="none" xmlns="http://www.w3.org/2000/svg">
<rect width="298" height="288" fill="#053351"/>
<path fill-rule="evenodd" clip-rule="evenodd" d="M96.9428 96.1036C93.7279 96.3475 89.0619 97.3003 87.5932 98.0128C87.3744 98.1189 86.703 98.3682 86.1013 98.567C82.5182 99.7493 77.3584 102.683 73.6683 105.635C71.1163 107.677 68.6408 110.056 68.2688 110.823L67.9778 111.424L68.6348 111.068C68.9963 110.872 69.8737 110.307 70.5849 109.811C74.3279 107.205 78.1195 105.613 83.0179 104.592C84.8269 104.215 85.9127 104.136 89.2841 104.139C92.9219 104.143 93.609 104.202 95.6498 104.687C97.9661 105.237 99.8288 105.863 100.89 106.449C101.211 106.626 101.932 106.932 102.492 107.13C103.052 107.327 104.902 108.367 106.602 109.441C109.462 111.249 110.457 112.017 114.548 115.579C117.16 117.854 124.065 125.693 126.579 129.239C127.117 129.998 127.713 130.81 127.903 131.044C128.572 131.866 131.594 135.959 133.547 138.688C134.633 140.206 136.415 142.643 137.506 144.103C140.361 147.925 141.231 149.102 144.092 153.021C150.523 161.833 154.753 167.074 159.696 172.358C163.566 176.494 165.221 178.05 168.871 180.984C176.853 187.402 184.11 190.686 192.527 191.69C195.184 192.006 201.74 191.821 204.165 191.361C211.53 189.963 218.955 186.528 224.436 181.984C226.155 180.558 229.13 177.663 229.13 177.415C229.13 177.031 228.564 177.255 227.521 178.05C225.402 179.667 221.638 181.455 218.287 182.435C214.748 183.469 212.352 183.82 208.816 183.821C204.361 183.822 200.959 183.144 196.691 181.404C191.322 179.215 185.352 174.785 179.715 168.806C177.678 166.646 172.881 161.006 171.407 159.039C171.043 158.553 170.141 157.358 169.402 156.385C167.811 154.288 163.863 148.839 160.226 143.722C157.023 139.217 157.074 139.286 154.632 136.06C153.538 134.614 152.15 132.747 151.548 131.911C150.427 130.352 148.408 127.73 148.183 127.54C148.114 127.482 147.569 126.765 146.973 125.947C145.973 124.577 145.134 123.532 142.217 120.022C130.865 106.364 119.514 98.5674 108.037 96.5455C105.328 96.0683 100.134 95.8613 96.9428 96.1036ZM192.726 96.1261C185.292 96.9092 177.495 100.185 171.122 105.203C170.426 105.751 169.452 106.513 168.958 106.896C167.342 108.149 167.975 108.485 169.955 107.425C170.932 106.902 174.834 105.35 175.935 105.045C180.234 103.859 188.006 103.758 192.986 104.825C198.863 106.085 204.899 109.148 209.834 113.376C211.701 114.976 214.338 117.683 214.81 118.485C215.007 118.819 215.512 119.488 215.932 119.972C216.353 120.455 217.046 121.424 217.473 122.125C217.899 122.826 218.397 123.638 218.579 123.93C219.149 124.848 220.909 128.648 221.43 130.088C222.261 132.385 222.657 133.934 223.304 137.414C223.808 140.121 223.807 147.07 223.304 149.624C222.52 153.596 221.573 156.039 219.458 159.536C214.068 168.446 204.6 173.473 194.87 172.591C191.832 172.316 189.476 171.617 186.814 170.201C183.581 168.482 183.657 169.004 187.04 171.761C190.441 174.533 194.554 177.092 198.348 178.799C199.17 179.169 201.666 179.925 203.071 180.23C205.029 180.655 210.077 180.88 211.923 180.625C219.922 179.517 226.746 175.977 232.05 170.183C233.576 168.517 236.341 164.588 237.352 162.652C239.144 159.219 240.535 155.135 241.312 151.022C241.697 148.987 241.756 148.007 241.753 143.784C241.75 140.125 241.661 138.315 241.394 136.565C240.96 133.71 240.193 130.346 239.542 128.436C239.274 127.651 238.971 126.717 238.868 126.36C238.56 125.289 235.976 119.89 235.058 118.4C231.494 112.612 226.437 107.123 221.67 103.869C215.46 99.6291 210.285 97.5095 203.468 96.4146C201.052 96.0263 195.172 95.8683 192.726 96.1261ZM85.8029 107.279C84.1977 107.522 82.6109 107.87 80.4607 108.45C72.8053 110.515 65.4162 116.537 61.0083 124.303C57.1408 131.118 55.5846 138.362 56.0937 147.182C56.5026 154.27 57.9787 160.008 60.9554 166.081C63.1635 170.585 65.4476 173.873 69.0874 177.785C75.991 185.205 83.8524 189.588 93.3804 191.331C95.2686 191.676 101.057 192.082 102.712 191.985C106.203 191.781 107.394 191.599 110.569 190.783C112.355 190.324 112.793 190.18 115.625 189.122C118.715 187.967 123.151 185.473 126.36 183.088C127.004 182.61 128.033 181.867 128.648 181.436C130.477 180.155 131.457 179.352 131.457 179.133C131.457 178.747 130.828 178.927 129.691 179.639C128.509 180.378 125.893 181.524 124.566 181.884C124.143 181.998 123.171 182.29 122.406 182.532C119.923 183.317 117.077 183.674 113.155 183.69C108.067 183.711 104.219 183.069 99.7467 181.451C94.0534 179.392 89.3406 176.237 84.891 171.503C78.1294 164.311 74.6104 155.985 74.0727 145.908C73.6655 138.28 75.7302 131.431 80.219 125.518C83.033 121.811 87.888 118.256 92.191 116.751C95.8316 115.479 97.9539 115.146 101.589 115.279C104.896 115.399 106.991 115.885 110.481 117.342C112.609 118.23 112.956 118.324 112.956 118.009C112.956 117.646 105.426 112.064 103.607 111.079C100.999 109.667 98.0029 108.53 94.8964 107.772C93.2167 107.362 87.3555 107.044 85.8029 107.279ZM178.901 107.683C173.651 108.798 169.418 110.533 165.529 113.163C161.24 116.062 159.131 117.802 154.435 122.317C152.218 124.449 151.388 125.378 151.231 125.903C151.09 126.378 151.2 126.543 154.945 131.502C156.43 133.469 157.99 135.604 158.411 136.246C158.832 136.888 159.273 137.51 159.391 137.626C159.508 137.743 159.865 138.221 160.182 138.688C160.88 139.714 162.117 141.13 162.317 141.13C162.513 141.13 162.707 140.904 164.877 138.143C170.501 130.985 173.768 127.448 178.924 122.933C181.592 120.596 186.599 117.524 189.245 116.599C192.349 115.515 196.658 115.02 199.547 115.416C203.979 116.023 206.441 116.878 209.949 119.026C211.111 119.738 212.142 120.32 212.241 120.32C213.546 120.32 208.14 115.379 203.866 112.667C198.108 109.011 192.511 107.39 185.167 107.249C181.703 107.183 181.033 107.229 178.901 107.683ZM133.633 149.04C132.72 150.237 131.776 151.455 131.534 151.747C131.293 152.039 130.676 152.804 130.163 153.446C127.22 157.129 121.342 163.101 118.029 165.775C115.194 168.063 110.895 170.529 107.895 171.587C102.415 173.52 95.5137 173.031 90.1793 170.333C86.4 168.421 85.7651 168.496 88.0408 170.584C93.2949 175.405 98.3534 178.186 104.812 179.803C108.248 180.664 112.91 180.999 116.323 180.631C119.413 180.298 123.267 179.323 125.588 178.286C128.314 177.068 131.211 175.51 132.849 174.382C136.205 172.069 138.586 170.118 142.663 166.338C145.264 163.927 146.774 162.29 146.774 161.881C146.774 161.523 143.459 156.902 141.104 153.977C140.54 153.276 139.509 151.891 138.813 150.898C137.013 148.329 135.824 146.863 135.539 146.863C135.403 146.863 134.546 147.843 133.633 149.04Z" fill="#8B8B8B" fill-opacity="0.4"/>
</svg>
