<svg width="112" height="52" viewBox="0 0 112 52"  fill="white" fill-opacity="0.5" xmlns="http://www.w3.org/2000/svg">
<path fill-rule="evenodd" clip-rule="evenodd" d="M24.6708 0.055849C22.7336 0.187429 19.922 0.701267 19.037 1.08547C18.9052 1.14273 18.5006 1.27717 18.138 1.38436C15.979 2.02199 12.8699 3.60404 10.6463 5.19617C9.10856 6.29726 7.61694 7.58008 7.39278 7.99417L7.21742 8.31814L7.61334 8.12609C7.83114 8.02039 8.35987 7.71544 8.7884 7.44838C11.0438 6.04268 13.3285 5.18426 16.2801 4.63344C17.3702 4.43006 18.0244 4.3878 20.0559 4.38952C22.2479 4.39146 22.662 4.4233 23.8917 4.68463C25.2874 4.98134 26.4098 5.31928 27.0495 5.63523C27.2426 5.73063 27.6768 5.89576 28.0146 6.00215C28.3523 6.10865 29.4667 6.66955 30.4908 7.24878C32.2146 8.22355 32.8139 8.63776 35.2791 10.5588C36.8532 11.7855 41.0139 16.0135 42.5284 17.9254C42.8527 18.3348 43.2118 18.7729 43.3262 18.8988C43.7295 19.3425 45.5502 21.5497 46.7271 23.0214C47.3818 23.8402 48.4553 25.1543 49.1127 25.9416C50.8334 28.0026 51.3573 28.6377 53.0811 30.7513C56.9566 35.5032 59.5053 38.3299 62.4841 41.1793C64.8158 43.4098 65.813 44.249 68.0123 45.8315C72.8223 49.2928 77.1948 51.0637 82.267 51.6049C83.8678 51.7758 87.8183 51.6759 89.2792 51.4277C93.7172 50.6739 98.1916 48.8213 101.494 46.3704C102.53 45.6015 104.323 44.0401 104.323 43.9065C104.323 43.6996 103.982 43.8201 103.353 44.2494C102.076 45.1214 99.8079 46.0852 97.7886 46.6137C95.6565 47.1716 94.2125 47.3609 92.0822 47.3615C89.3977 47.3622 87.3473 46.9964 84.7758 46.0579C81.5407 44.8774 77.9434 42.4881 74.5467 39.2641C73.3194 38.0991 70.4284 35.0572 69.5406 33.9965C69.3211 33.7344 68.7774 33.0902 68.3323 32.5651C67.374 31.4342 64.9946 28.4957 62.8031 25.7364C60.8732 23.3067 60.9037 23.344 59.4323 21.604C58.773 20.8243 57.937 19.8175 57.5744 19.3665C56.8986 18.526 55.6819 17.1117 55.5466 17.0093C55.505 16.9778 55.1768 16.5913 54.8173 16.1504C54.2147 15.4114 53.7095 14.848 51.9515 12.955C45.1112 5.58931 38.2713 1.38459 31.3557 0.294158C29.7236 0.0368384 26.5938 -0.074815 24.6708 0.055849ZM82.3869 0.0679863C77.9074 0.490325 73.2092 2.25698 69.3687 4.96325C68.9494 5.25859 68.3627 5.66948 68.0649 5.87618C67.0913 6.55172 67.4728 6.73311 68.6654 6.16167C69.2546 5.8795 71.6054 5.04215 72.269 4.87816C74.8591 4.23812 79.5427 4.18407 82.5433 4.75952C86.0847 5.43872 89.7214 7.09063 92.6955 9.37101C93.8204 10.2336 95.4092 11.6935 95.6938 12.1262C95.8124 12.3063 96.1166 12.667 96.3701 12.9278C96.6235 13.1887 97.0412 13.7112 97.2982 14.0891C97.5552 14.467 97.8551 14.905 97.9646 15.0625C98.3085 15.5574 99.3688 17.607 99.6828 18.3835C100.183 19.622 100.422 20.4576 100.812 22.3343C101.115 23.7942 101.115 27.5418 100.812 28.9191C100.34 31.0613 99.7687 32.3787 98.4943 34.2644C95.2467 39.0696 89.5413 41.7809 83.6783 41.3052C81.8482 41.1568 80.4281 40.7797 78.8243 40.0163C76.8765 39.0893 76.9221 39.3706 78.9606 40.8576C81.0098 42.3523 83.488 43.7327 85.7744 44.653C86.2699 44.8524 87.7738 45.2602 88.62 45.4246C89.8003 45.6539 92.8419 45.7753 93.9541 45.6375C98.7743 45.0402 102.886 43.1313 106.082 40.0067C107.001 39.1079 108.668 36.9893 109.277 35.9448C110.357 34.0934 111.195 31.8912 111.663 29.6729C111.895 28.5756 111.931 28.0471 111.929 25.7698C111.927 23.7961 111.873 22.8202 111.713 21.8763C111.451 20.3368 110.989 18.5227 110.596 17.4926C110.435 17.0693 110.252 16.5655 110.19 16.373C110.005 15.7954 108.448 12.8838 107.895 12.0803C105.747 8.95875 102.7 5.99837 99.8276 4.24351C96.0857 1.95717 92.967 0.814066 88.8597 0.223616C87.4034 0.0141643 83.8604 -0.0710373 82.3869 0.0679863ZM17.9582 6.08288C16.991 6.21377 16.0349 6.40135 14.7392 6.71421C10.1264 7.82789 5.67389 11.0756 3.01787 15.2638C0.687411 18.9388 -0.25031 22.8455 0.0564305 27.6021C0.302878 31.4249 1.19229 34.5193 2.98599 37.7941C4.31651 40.2234 5.69283 41.9962 7.88604 44.106C12.0459 48.1075 16.7829 50.4716 22.5242 51.4114C23.662 51.5976 27.1499 51.8166 28.147 51.7644C30.251 51.6544 30.9682 51.5562 32.8817 51.116C33.9576 50.8686 34.2216 50.7909 35.928 50.22C37.7902 49.5971 40.4632 48.2525 42.3968 46.9663C42.7844 46.7084 43.4047 46.3075 43.7752 46.0752C44.8773 45.3844 45.4678 44.9511 45.4678 44.8333C45.4678 44.6251 45.0891 44.7221 44.4038 45.1058C43.6916 45.5047 42.1151 46.1226 41.3155 46.3165C41.061 46.3782 40.4753 46.5356 40.0138 46.6662C38.5182 47.0897 36.8029 47.2819 34.44 47.2907C31.3741 47.3023 29.0554 46.9557 26.3603 46.0835C22.9297 44.973 20.09 43.2711 17.4088 40.7186C13.3345 36.8398 11.214 32.3498 10.89 26.915C10.6447 22.8013 11.8888 19.1076 14.5936 15.9187C16.2892 13.9196 19.2147 12.0025 21.8075 11.1911C24.0012 10.5048 25.2801 10.3255 27.4702 10.397C29.4632 10.462 30.7253 10.724 32.8286 11.5097C34.1105 11.9885 34.3201 12.0391 34.3201 11.8694C34.3201 11.6734 29.7825 8.66329 28.6864 8.13216C27.1148 7.37063 25.3096 6.75716 23.4377 6.34833C22.4256 6.12731 18.8938 5.95623 17.9582 6.08288ZM74.0561 6.30035C70.8926 6.90213 68.3419 7.83763 65.9985 9.25569C63.4142 10.8195 62.1437 11.7579 59.3138 14.1927C57.9776 15.3424 57.4775 15.8434 57.3834 16.1267C57.2984 16.3825 57.3644 16.4716 59.621 19.1462C60.5159 20.2068 61.4557 21.3581 61.7094 21.7045C61.9631 22.0509 62.2288 22.3859 62.2999 22.4489C62.3708 22.5118 62.5855 22.7695 62.7768 23.0214C63.1971 23.5748 63.9428 24.3384 64.063 24.3384C64.1816 24.3384 64.2984 24.2164 65.6055 22.7276C68.9948 18.867 70.9631 16.9596 74.07 14.5246C75.6779 13.2646 78.6948 11.6076 80.2892 11.1091C82.1597 10.5242 84.7557 10.2573 86.4968 10.4707C89.1675 10.7984 90.6511 11.2592 92.7647 12.4179C93.465 12.8017 94.0864 13.1157 94.1457 13.1157C94.9324 13.1157 91.6748 10.4511 89.0994 8.98818C85.6294 7.01677 82.2571 6.14243 77.8319 6.06674C75.7444 6.03101 75.3407 6.05597 74.0561 6.30035ZM46.779 28.6041C46.2289 29.2498 45.6599 29.9068 45.5146 30.0642C45.3694 30.2217 44.9974 30.634 44.6882 30.9804C42.9146 32.9667 39.373 36.1874 37.3767 37.6292C35.6686 38.863 33.0778 40.1928 31.2701 40.7635C27.968 41.8059 23.8097 41.5426 20.5953 40.0875C18.3181 39.0565 17.9355 39.0968 19.3067 40.2229C22.4727 42.8229 25.5208 44.3226 29.4123 45.1947C31.4829 45.6587 34.2923 45.8397 36.3489 45.6412C38.2105 45.4616 40.5331 44.9354 41.9317 44.3762C43.5741 43.7196 45.3197 42.8795 46.3068 42.2707C48.3291 41.0235 49.7637 39.9712 52.2206 37.9328C53.7875 36.6328 54.6976 35.7498 54.6976 35.5295C54.6976 35.3363 52.7002 32.8441 51.281 31.2667C50.941 30.8888 50.3199 30.1415 49.9007 29.6062C48.816 28.2207 48.0991 27.4303 47.9275 27.4303C47.8458 27.4303 47.3291 27.9585 46.779 28.6041Z"/>
</svg>
